<svg xmlns="http://www.w3.org/2000/svg" width="920" height="394" role="img">
<title>Efeitos agudos confirmatórios</title>
<rect width="100%" height="100%" fill="white"/>
<line x1="547.5" y1="25" x2="547.5" y2="359" stroke="#334155"/>
<text x="10" y="54" font-size="12" fill="#111827">Minutes share</text>
<line x1="484.5" y1="50" x2="723.3" y2="50" stroke="#2563eb" stroke-width="2"/>
<circle cx="603.9" cy="50" r="5" fill="#2563eb"><title>0.060 DP</title></circle>
<text x="10" y="108" font-size="12" fill="#111827">Na súmula</text>
<line x1="485.0" y1="104" x2="818.0" y2="104" stroke="#2563eb" stroke-width="2"/>
<circle cx="651.5" cy="104" r="5" fill="#2563eb"><title>0.111 DP</title></circle>
<text x="10" y="162" font-size="12" fill="#111827">Jogou</text>
<line x1="452.9" y1="158" x2="718.9" y2="158" stroke="#2563eb" stroke-width="2"/>
<circle cx="585.9" cy="158" r="5" fill="#2563eb"><title>0.041 DP</title></circle>
<text x="10" y="216" font-size="12" fill="#111827">Titular</text>
<line x1="451.9" y1="212" x2="681.9" y2="212" stroke="#2563eb" stroke-width="2"/>
<circle cx="566.9" cy="212" r="5" fill="#2563eb"><title>0.021 DP</title></circle>
<text x="10" y="270" font-size="12" fill="#111827">Minutos</text>
<line x1="484.5" y1="266" x2="723.3" y2="266" stroke="#2563eb" stroke-width="2"/>
<circle cx="603.9" cy="266" r="5" fill="#2563eb"><title>0.060 DP</title></circle>
<text x="10" y="324" font-size="12" fill="#111827">npxG+xA</text>
<line x1="499.9" y1="320" x2="678.2" y2="320" stroke="#2563eb" stroke-width="2"/>
<circle cx="589.0" cy="320" r="5" fill="#2563eb"><title>0.044 DP</title></circle>
<text x="492.5" y="386" font-size="12" fill="#334155">Efeito agudo (DP)</text></svg>